<svg width="70" height="70" viewBox="0 0 70 70" fill="none" xmlns="http://www.w3.org/2000/svg">
<g clip-path="url(#clip0)">
<path d="M35 5.33508C34.6232 5.33508 34.2581 5.41206 33.9152 5.56368C33.3973 5.79282 33.1632 6.39848 33.3924 6.91637C33.6216 7.43426 34.2275 7.66846 34.7453 7.43918C34.8251 7.40391 34.9108 7.386 35 7.386C35.348 7.386 35.6313 7.66914 35.6313 8.01736C35.6313 8.29818 35.5107 9.19096 35.2843 10.1368C35.186 10.5475 35.0891 10.8798 35 11.1447C34.9084 10.8723 34.8084 10.5286 34.7072 10.1012C34.5767 9.55012 34.0239 9.209 33.473 9.33984C32.922 9.47041 32.581 10.0232 32.7116 10.5741C33.2702 12.9323 33.9546 13.9384 35 13.9384C36.223 13.9384 36.7789 12.4913 37.1616 11.0759C37.4536 9.99527 37.6824 8.65188 37.6824 8.0175C37.6824 6.53834 36.4791 5.33508 35 5.33508Z" fill="#EECC67"/>
<path d="M32.3361 11.4012C31.9745 10.5987 31.4234 9.77004 30.965 9.33897C30.443 8.84815 29.7586 8.58989 29.0449 8.61217C28.3288 8.63432 27.6641 8.93401 27.1732 9.456C26.6826 9.97799 26.4243 10.6599 26.4464 11.3761C26.4686 12.0922 26.7683 12.7569 27.2903 13.2477C27.8497 13.7736 29.575 14.8096 30.9685 14.8095C31.4907 14.8095 31.9667 14.6639 32.3169 14.2913C32.9095 13.6608 32.9161 12.6883 32.3361 11.4012ZM28.6951 11.7534C28.5724 11.6382 28.3397 11.2199 28.6677 10.8611C28.9958 10.5023 29.4422 10.7226 29.5602 10.8334C29.9488 11.1987 30.4776 12.151 30.6545 12.7286C30.0667 12.5877 29.0837 12.1189 28.6951 11.7534Z" fill="#EECC67"/>
<path d="M42.8268 9.45641C42.3361 8.93442 41.6712 8.6346 40.9553 8.61245C40.2391 8.59098 39.5572 8.84842 39.0352 9.33924C38.5766 9.77018 38.0256 10.599 37.664 11.4016C37.0841 12.6886 37.0905 13.6609 37.6833 14.2916C38.0336 14.6642 38.5094 14.8096 39.0316 14.8096C40.4251 14.8096 42.1504 13.7736 42.7096 13.248C43.2316 12.7573 43.5314 12.0925 43.5536 11.3765C43.5756 10.6602 43.3173 9.97827 42.8268 9.45641ZM41.3047 11.7537C40.9162 12.119 39.9331 12.5881 39.3454 12.7289C39.5223 12.1511 40.0511 11.199 40.4397 10.8337C40.5577 10.7227 40.9911 10.4836 41.3323 10.8613C41.6734 11.2388 41.4276 11.638 41.3047 11.7537Z" fill="#EECC67"/>
<path d="M69.7127 55.6012C69.0423 54.4747 67.0959 53.8626 63.6096 55.2985L58.6868 47.028C57.722 45.4072 57.5191 44.2569 57.5188 43.5775C57.5187 43.072 57.6257 42.7602 57.6859 42.6247C58.2005 41.7546 58.5298 40.7832 58.6687 39.7137C59.71 31.7 49.4253 20.2296 44.9552 15.6701C43.7205 14.4106 41.7996 14.1607 40.2841 15.063L34.9999 18.2084L29.7156 15.063C28.2003 14.1611 26.2793 14.4108 25.0446 15.6701C20.5746 20.2296 10.2898 31.6999 11.3311 39.7137C11.4717 40.7966 11.8066 41.7796 12.3325 42.6577C12.4706 43.0012 12.8607 44.4277 11.313 47.0278L6.39019 55.2985C2.90401 53.8625 0.957683 54.4746 0.287079 55.6012C-0.0496588 56.1669 -0.387627 57.4021 1.1335 59.3176C2.05252 60.4748 3.46469 61.6514 5.10996 62.6307C6.75523 63.61 8.47023 64.2515 9.91821 64.5464C12.2155 65.0141 13.3133 63.981 13.5886 63.5184C14.2592 62.3918 13.869 60.3892 10.9447 58.0093L15.8675 49.7387C16.8323 48.1179 17.7464 47.3911 18.3436 47.0669C18.7804 46.8297 19.4371 46.7656 19.5292 46.7656C20.4499 46.7656 21.3711 46.589 22.2882 46.2357C28.0379 44.0201 32.4141 35.0585 35.0007 28.2208C36.0649 31.0324 37.49 34.3634 39.2112 37.3833C41.9537 42.1943 44.8566 45.1888 47.8395 46.2838C48.7145 46.6049 49.5925 46.7653 50.4707 46.7652C51.887 46.7652 53.3025 46.3478 54.7021 45.5146C55.0252 45.3223 55.3273 45.1175 55.6121 44.9028C55.8011 45.7938 56.1947 46.851 56.9244 48.0769L62.8454 58.0244C62.854 58.0388 63.1103 58.5565 62.637 58.8456C62.1637 59.1346 61.8293 58.66 61.8159 58.6373L55.8949 48.6896C55.6855 48.338 55.4672 48.0041 55.2457 47.6973C54.9143 47.2382 54.2732 47.1345 53.814 47.466C53.3548 47.7975 53.2513 48.4385 53.5827 48.8977C53.769 49.1558 53.954 49.4388 54.1326 49.7388L59.0554 58.0095C56.131 60.3905 55.742 62.3936 56.4115 63.5185C56.6869 63.981 57.3549 64.6575 58.9057 64.6575C59.2518 64.6575 61.4534 64.6652 64.8901 62.6307C66.5377 61.6553 67.9475 60.4748 68.8666 59.3176C70.3874 57.4021 70.0493 56.1669 69.7127 55.6012ZM49.1575 23.4693C50.4429 25.1462 49.9607 27.6266 48.3893 28.5621C46.3895 29.7523 42.8042 31.4496 39.4055 30.8375C40.6466 29.6073 42.5383 27.389 44.6371 23.7166C45.0829 22.9362 46.0286 22.4065 46.9901 22.3978C47.6008 22.3946 48.4645 22.5652 49.1575 23.4693ZM11.8294 62.4647C11.5772 62.7431 9.39089 62.7917 6.15914 60.8681C2.92725 58.9445 1.92797 56.9999 2.04651 56.6547C2.23395 56.4481 3.39989 56.3524 5.32871 57.0858C5.15959 57.3974 4.36731 59.503 6.31404 60.6079C8.26077 61.713 9.68675 60.092 9.87993 59.7946C11.4441 61.14 11.9168 62.2096 11.8294 62.4647ZM14.1052 48.6898L8.18421 58.6373C8.18421 58.6373 7.8714 59.1807 7.36294 58.8456C6.9007 58.5409 7.07925 58.1541 7.13025 58.0643L13.0756 48.0769C13.805 46.8516 14.1993 45.7939 14.3884 44.9031C14.673 45.1176 15.9442 45.8757 16.2684 46.0236C15.5756 46.6147 14.8343 47.4646 14.1052 48.6898ZM30.0618 34.4076C27.31 39.8083 24.3669 43.2366 21.5508 44.3218C19.8159 44.9906 18.1137 44.804 16.3467 43.7523C14.5799 42.7007 13.6024 41.2934 13.3649 39.4495C12.7233 34.4683 18.0906 27.142 18.1249 27.0923C18.473 28.4002 19.3095 29.5793 20.5616 30.3246C22.4863 31.4702 25.7148 33.0162 29.119 33.0161C29.6794 33.0161 30.2447 32.9737 30.8098 32.8811C30.5684 33.3921 30.3193 33.9022 30.0618 34.4076ZM34.9239 22.1146C34.4005 23.8166 33.4911 26.5768 32.2554 29.5918C31.8647 29.2196 31.3718 28.7104 30.801 28.0353C30.4354 27.6029 29.7883 27.5486 29.3558 27.9143C28.9233 28.2799 28.869 28.927 29.2348 29.3596C29.7423 29.9599 30.2007 30.4481 30.5943 30.8378C27.1959 31.4493 23.6103 29.7525 21.6107 28.5622C20.0393 27.6269 19.2695 25.6259 20.8489 23.4612C21.5166 22.5461 22.3986 22.3932 23.0097 22.3981C23.9712 22.4067 24.9169 22.9365 25.3628 23.7168C25.7922 24.4683 26.2347 25.1962 26.678 25.8806C26.986 26.356 27.6211 26.4916 28.0963 26.1837C28.5717 25.8758 28.7073 25.2408 28.3994 24.7655C27.9767 24.113 27.5541 23.4178 27.1435 22.699C26.4051 21.407 24.9918 20.5271 23.4624 20.3733C24.6591 19.0254 25.7301 17.9005 26.5091 17.1056C26.8504 16.7575 27.3052 16.5764 27.7654 16.5764C28.0742 16.5764 28.3853 16.6579 28.6664 16.8252L34.1417 20.0843C34.8417 20.5009 35.1633 21.3357 34.9239 22.1146ZM37.7447 29.5921C37.0888 27.9932 36.5317 26.4831 36.0842 25.1939C36.3955 24.2738 36.6631 23.4368 36.8844 22.7174C37.2067 21.6695 37.059 20.575 36.5377 19.68L41.3335 16.8255C42.0337 16.4089 42.9205 16.5243 43.4909 17.106C44.2702 17.9009 45.341 19.0258 46.5376 20.3736C45.0081 20.5274 43.595 21.4073 42.8564 22.6993C41.1148 25.7469 39.5518 27.685 38.5475 28.7743C38.2464 29.1002 37.9778 29.3699 37.7447 29.5921ZM56.6352 39.4494C56.4546 41.6261 54.6413 43.164 53.6532 43.7522C51.9187 44.7848 50.2484 44.9829 48.5464 44.3581C46.0306 43.4346 43.4893 40.7462 40.9932 36.3675C40.3489 35.2371 39.7469 34.0591 39.1909 32.881C39.7555 32.9734 40.3207 33.0158 40.8811 33.0158C44.285 33.0158 47.514 31.4699 49.4386 30.3244C50.6907 29.579 51.5273 28.4002 51.8755 27.0923C51.9097 27.1421 57.1308 33.4692 56.6352 39.4494ZM63.8409 60.8681C60.6092 62.7917 58.4232 62.7433 58.1764 62.4743C58.0845 62.2119 58.5558 61.141 60.1204 59.7949C60.3137 60.0922 61.7564 61.7566 63.6862 60.6079C65.616 59.4591 64.8408 57.3972 64.6716 57.0856C66.6002 56.352 67.7656 56.4466 67.9481 56.6451C68.0721 56.9999 67.0726 58.9445 63.8409 60.8681Z" fill="#EECC67"/>
<path d="M49.0927 34.4883C49.6591 34.4883 50.1182 34.0292 50.1182 33.4628C50.1182 32.8964 49.6591 32.4373 49.0927 32.4373C48.5263 32.4373 48.0672 32.8964 48.0672 33.4628C48.0672 34.0292 48.5263 34.4883 49.0927 34.4883Z" fill="#EECC67"/>
<path d="M47.0554 41.6258C47.6218 41.6258 48.0809 41.1666 48.0809 40.6002C48.0809 40.0339 47.6218 39.5747 47.0554 39.5747C46.489 39.5747 46.0298 40.0339 46.0298 40.6002C46.0298 41.1666 46.489 41.6258 47.0554 41.6258Z" fill="#EECC67"/>
<path d="M54.0712 38.7749C54.6376 38.7749 55.0967 38.3158 55.0967 37.7494C55.0967 37.183 54.6376 36.7239 54.0712 36.7239C53.5048 36.7239 53.0457 37.183 53.0457 37.7494C53.0457 38.3158 53.5048 38.7749 54.0712 38.7749Z" fill="#EECC67"/>
<path d="M22.9179 40.6179C23.4842 40.6179 23.9434 40.1588 23.9434 39.5924C23.9434 39.026 23.4842 38.5669 22.9179 38.5669C22.3515 38.5669 21.8923 39.026 21.8923 39.5924C21.8923 40.1588 22.3515 40.6179 22.9179 40.6179Z" fill="#EECC67"/>
<path d="M22.9179 35.5137C23.4842 35.5137 23.9434 35.0546 23.9434 34.4882C23.9434 33.9218 23.4842 33.4626 22.9179 33.4626C22.3515 33.4626 21.8923 33.9218 21.8923 34.4882C21.8923 35.0546 22.3515 35.5137 22.9179 35.5137Z" fill="#EECC67"/>
</g>
<defs>
<clipPath id="clip0">
<rect width="70" height="70" fill="white"/>
</clipPath>
</defs>
</svg>
