<svg width="70" height="70" viewBox="0 0 70 70" fill="none" xmlns="http://www.w3.org/2000/svg">
<path d="M67.4644 21.2902L56.5106 15.2577C56.0146 14.9847 55.3911 15.1653 55.1177 15.6612C54.8445 16.1574 55.0251 16.7808 55.5212 17.0541L66.475 23.0866C67.3984 23.5949 67.9495 24.5277 67.9495 25.5818C67.9495 26.6358 67.3984 27.5686 66.4751 28.0771L53.2913 35.3377L40.2577 27.5343C40.728 26.9597 40.9945 26.2954 40.9945 25.5817C40.9945 23.335 38.3614 21.575 35.0001 21.575C31.6389 21.575 29.0058 23.335 29.0058 25.5817C29.0058 27.8285 31.6389 29.5885 35.0001 29.5885C36.3094 29.5885 37.5069 29.3206 38.4827 28.8619L51.2118 36.483L39.2778 43.0552C36.5992 44.5303 33.4011 44.5303 30.7225 43.0552L3.52517 28.0771C2.6019 27.5688 2.05079 26.6358 2.05079 25.5818C2.05079 24.5277 2.6019 23.5949 3.52517 23.0864L30.7225 8.10842C33.4012 6.63363 36.5993 6.63363 39.2778 8.10842L51.5307 14.8563C52.0269 15.1296 52.6503 14.9489 52.9236 14.4529C53.1968 13.9567 53.0162 13.3333 52.5202 13.06L40.2672 6.31207C36.9692 4.49575 33.0312 4.49575 29.7332 6.31207L2.53587 21.2902C0.948012 22.1647 0 23.7691 0 25.5818C0 27.3946 0.948012 28.9988 2.53587 29.8734L29.7332 44.8514C31.3824 45.7598 33.1909 46.2139 35.0001 46.2137C36.8088 46.2136 38.6184 45.7595 40.2671 44.8514L52.2444 38.2553V47.8567C50.4623 48.3311 49.1453 49.9582 49.1453 51.8876C49.1453 52.4987 49.2784 53.0789 49.5155 53.6024C49.2727 54.1392 49.1453 54.7229 49.1453 55.3202V58.7695C44.4164 60.0849 39.662 60.752 35 60.752C26.0339 60.752 18.4648 58.3055 13.6938 56.2532C11.3716 55.254 9.871 52.9787 9.871 50.4564V36.7428C9.871 36.1763 9.41203 35.7174 8.8456 35.7174C8.27917 35.7174 7.82021 36.1763 7.82021 36.7428V50.4564C7.82021 53.799 9.80756 56.8138 12.8833 58.1371C17.8312 60.2656 25.6848 62.803 35 62.803C39.6669 62.803 44.4183 62.1598 49.1453 60.894V62.6143C49.1453 63.9574 50.2379 65.0502 51.581 65.0502H55.0519C56.3951 65.0502 57.4879 63.9574 57.4879 62.6143V57.9653C60.3509 56.5656 62.1797 53.6623 62.1797 50.4564V32.7836L67.4641 29.8734C69.052 28.999 70 27.3946 70 25.5818C70.0003 23.7691 69.0523 22.1647 67.4644 21.2902ZM38.465 26.4611L35.5269 24.702C35.041 24.4111 34.4114 24.569 34.1205 25.055C33.8295 25.5409 33.9876 26.1705 34.4735 26.4615L36.1227 27.449C35.7696 27.5057 35.3939 27.5377 35.0001 27.5377C32.743 27.5377 31.0566 26.505 31.0566 25.5817C31.0566 24.6584 32.743 23.6258 35.0001 23.6258C37.2572 23.6258 38.9437 24.6584 38.9437 25.5817C38.9437 25.876 38.7717 26.1813 38.465 26.4611ZM53.3167 49.7672C54.4861 49.7672 55.4373 50.7185 55.4373 51.8877C55.4373 53.0571 54.4861 54.0084 53.3167 54.0084C52.1475 54.0084 51.1962 53.0571 51.1962 51.8877C51.1962 50.7185 52.1475 49.7672 53.3167 49.7672ZM55.4373 62.6142C55.4372 62.8266 55.2645 62.9994 55.0521 62.9994H51.5812C51.3689 62.9994 51.1962 62.8266 51.1962 62.6143V55.4778C51.818 55.8465 52.5429 56.059 53.3167 56.059C54.0905 56.059 54.8154 55.8464 55.4373 55.4777V62.6142ZM60.1291 50.4564C60.1291 52.5198 59.1247 54.4173 57.4881 55.5867C57.4881 55.5867 57.6053 54.4683 57.102 53.6373C57.3492 53.1048 57.4881 52.5122 57.4881 51.8877C57.4881 49.9247 56.1246 48.2752 54.2953 47.8334V37.1259L60.1291 33.9131V50.4564Z" fill="#EECC67"/>
</svg>
