<svg width="70" height="70" viewBox="0 0 70 70" fill="none" xmlns="http://www.w3.org/2000/svg">
<g clip-path="url(#clip0)">
<path d="M68.7298 40.0998C65.5014 38.2496 62.0375 35.9866 58.409 33.3598C59.6334 32.8674 60.5002 31.6686 60.5002 30.2701V22.6052C60.5002 20.7694 59.0067 19.2757 57.1707 19.2757H54.3986C58.3447 15.9714 59.0395 10.0954 55.8933 5.95422C52.6526 1.68845 46.5456 0.854743 42.2802 4.09526C40.1243 5.73301 36.9106 9.6738 34.9998 13.6604C33.0889 9.67544 29.8616 5.72249 27.7198 4.09526C23.454 0.854469 17.3473 1.68873 14.1065 5.95422C12.6271 7.90179 11.9395 10.3146 12.1707 12.7477C12.2245 13.3115 12.7247 13.7253 13.2885 13.6716C13.8524 13.6179 14.266 13.1175 14.2125 12.5538C14.1182 11.5609 14.2193 10.5731 14.4989 9.63743C15.2216 8.4745 16.1178 7.80895 17.2369 7.60716C18.0004 7.46948 18.7961 7.55807 19.553 7.76015C19.0029 8.06886 18.5165 8.489 18.1242 9.00579C16.5664 11.0564 16.9672 13.9922 19.0179 15.5498C20.0839 16.3598 22.6103 17.6261 25.6388 18.493C26.6784 18.7905 28.5323 19.2291 28.5249 19.2757H19.4244C18.5293 18.82 17.7657 18.359 17.2066 17.9342C16.4863 17.3869 15.8761 16.7278 15.3925 15.9749C15.0865 15.4983 14.4519 15.3602 13.9758 15.6662C13.4994 15.9722 13.3611 16.6065 13.6671 17.0829C14.197 17.9084 14.847 18.6438 15.6018 19.2754H12.8293C10.9934 19.2754 9.49979 20.769 9.49979 22.605V30.2698C9.49979 31.6683 10.3667 32.8671 11.591 33.3595C7.96211 35.9863 4.4982 38.2493 1.27026 40.0995C0.299006 40.6561 -0.176366 41.7236 0.059611 42.8193C0.296135 43.9179 1.17127 44.6974 2.28909 44.8054L4.81429 45.0489L3.60214 47.9078C3.17339 48.9191 3.42522 50.0458 4.24362 50.7778C4.7246 51.2079 5.90626 51.7703 7.16927 51.0969C9.25041 49.9875 11.3101 48.6626 13.3879 47.2877V64.1447C13.3879 66.2044 15.0637 67.8803 17.1235 67.8803H52.8764C54.936 67.8803 56.6119 66.2045 56.6119 64.1447V34.5885C60.5155 37.4424 64.2426 39.8917 67.71 41.8788C67.9696 42.0277 67.9629 42.2616 67.9356 42.3878C67.9134 42.491 67.8278 42.7341 67.5141 42.7643L63.5977 43.1421C63.2726 43.1734 62.982 43.3578 62.8149 43.6384C62.648 43.919 62.6246 44.2623 62.752 44.5631L64.5094 48.7089C64.6253 48.9822 64.4835 49.1652 64.3887 49.25C64.2936 49.3352 64.0953 49.456 63.8352 49.31C62.5525 48.5888 61.2348 47.805 59.9188 46.9806C59.439 46.6801 58.8059 46.8253 58.5056 47.3052C58.205 47.785 58.3502 48.4179 58.8302 48.7183C60.1737 49.5601 61.4961 50.4035 62.8303 51.0973C64.1047 51.7602 65.2753 51.2084 65.756 50.7782C66.5744 50.0462 66.8262 48.9195 66.3975 47.9082L65.1853 45.0493L67.7107 44.8057C68.8285 44.6978 69.7033 43.9182 69.94 42.8197C70.1764 41.7239 69.701 40.6564 68.7298 40.0998ZM35.0001 15.7954C37.1318 15.7954 38.9212 17.2837 39.3866 19.2757H30.6134C31.079 17.2839 32.8684 15.7954 35.0001 15.7954ZM17.51 5.51057C20.1606 3.69672 23.785 3.68127 26.4793 5.72795C28.3454 7.14587 31.1367 10.5477 32.9236 14.0837C31.9501 14.4097 31.0772 14.9565 30.3667 15.6667C26.9004 7.68905 21.0658 5.24957 17.51 5.51057ZM26.2026 16.5215C23.5799 15.7706 21.1823 14.6192 20.2581 13.9169C19.1079 13.0431 18.883 11.3965 19.7569 10.2462C20.2715 9.5688 21.0541 9.21238 21.8455 9.21238C22.3979 9.21238 22.9544 9.38601 23.4272 9.74503C24.3517 10.4472 26.1038 12.4481 27.5303 14.7734C28.0326 15.5922 28.4496 16.3708 28.775 17.0972C27.9897 16.9792 27.1281 16.7863 26.2026 16.5215ZM13.3878 44.8182C10.9781 46.4575 8.55041 47.9684 6.16425 49.3097C5.90421 49.4556 5.7057 49.3349 5.61081 49.2497C5.51607 49.165 5.37429 48.9819 5.49009 48.7086L7.24748 44.5629C7.3749 44.2622 7.35152 43.9188 7.18459 43.6381C7.01752 43.3575 6.72685 43.1732 6.40173 43.1418L2.48555 42.7642C2.17165 42.7338 2.08606 42.4907 2.06391 42.3875C2.03671 42.2613 2.02987 42.0274 2.2895 41.8785C5.75642 39.8916 9.48379 37.4422 13.3875 34.5881V44.8182H13.3878ZM12.8293 31.5487C12.1242 31.5487 11.5504 30.975 11.5504 30.2698V22.6051H11.5506C11.5506 21.9 12.1242 21.3262 12.8294 21.3262H28.4439V31.5486H12.8293V31.5487ZM39.5057 65.8299H30.4944V60.7697C30.4944 60.2032 30.0354 59.7443 29.469 59.7443C28.9025 59.7443 28.4436 60.2032 28.4436 60.7697V65.8299H17.1235C16.1944 65.8299 15.4387 65.0741 15.4387 64.1451V33.5995H28.4437V56.356C28.4437 56.9224 28.9027 57.3814 29.4691 57.3814C30.0355 57.3814 30.4945 56.9224 30.4945 56.356V33.5995H39.5058V65.8299H39.5057ZM39.5057 31.5488H30.4944V21.3265H39.5057V31.5488ZM37.0767 14.0838C38.8546 10.5777 41.6839 7.12345 43.5208 5.72795C46.2151 3.68127 49.8398 3.69672 52.4904 5.51071C48.9346 5.25012 43.7173 6.51628 39.6334 15.6669C38.9231 14.9565 38.05 14.4097 37.0767 14.0838ZM42.4697 14.7738C43.8963 12.4485 45.6483 10.4474 46.5729 9.74544C47.0457 9.38614 47.6022 9.21279 48.1545 9.21279C48.946 9.21279 49.7288 9.56908 50.2432 10.2467C51.1171 11.3969 50.8922 13.0435 49.7419 13.9174C48.8176 14.6196 46.4199 15.7711 43.7975 16.5218C42.7579 16.8191 41.901 16.9946 41.2252 17.097C41.55 16.3721 41.9667 15.594 42.4697 14.7738ZM44.3619 18.4929C47.3901 17.6259 49.9167 16.3596 50.9827 15.55C51.9748 14.7963 52.6141 13.6999 52.783 12.4627C52.952 11.2256 52.63 9.99796 51.8763 9.00579C51.4857 8.49159 51.0024 8.0731 50.4558 7.76479C51.2226 7.56054 52.0153 7.47358 52.7578 7.6062C53.8784 7.80636 54.7758 8.47136 55.4992 9.63388C56.385 12.6055 55.405 15.9504 52.7938 17.9341C52.2352 18.3585 51.4705 18.8199 50.5757 19.2756H41.4755C41.4683 19.2287 43.3183 18.7916 44.3619 18.4929ZM54.5613 64.1451C54.5613 65.0743 53.8055 65.8299 52.8765 65.8299H41.5564V33.5995H54.5614V64.1451H54.5613ZM57.1707 31.549H41.5564V21.3265H51.5957H52.1325H57.1708V21.3264C57.8759 21.3264 58.4497 21.9 58.4497 22.6052V30.2701C58.4496 30.9752 57.8759 31.549 57.1707 31.549Z" fill="#EECC67"/>
</g>
<defs>
<clipPath id="clip0">
<rect width="70" height="70" fill="white"/>
</clipPath>
</defs>
</svg>
