<svg width="216" height="48" viewBox="0 0 216 48" fill="none" xmlns="http://www.w3.org/2000/svg">
<path d="M8.448 8.4H24.048V9.312H21.408V30.048C21.408 34.368 20.432 37.52 18.48 39.504C16.528 41.456 13.6 42.432 9.696 42.432C7.104 42.432 5.04 41.936 3.504 40.944C2 39.952 1.248 38.56 1.248 36.768C1.248 35.392 1.632 34.32 2.4 33.552C3.168 32.752 4.208 32.352 5.52 32.352C6.864 32.352 7.856 32.688 8.496 33.36C9.168 34.032 9.504 34.848 9.504 35.808C9.504 36.736 9.328 37.68 8.976 38.64H7.104C6.816 39.12 6.672 39.584 6.672 40.032C6.672 40.448 6.88 40.816 7.296 41.136C7.744 41.424 8.32 41.568 9.024 41.568C10.304 41.568 11.12 41.072 11.472 40.08C11.856 39.056 12.048 36.864 12.048 33.504V9.312H8.448V8.4ZM37.2446 42.48C33.1166 42.48 30.0126 41.424 27.9326 39.312C25.8846 37.168 24.8606 34.208 24.8606 30.432C24.8606 26.624 26.0126 23.712 28.3166 21.696C30.6526 19.68 33.6126 18.672 37.1966 18.672C44.4606 18.672 47.9486 22.32 47.6606 29.616H34.1246V31.488C34.1246 34.624 34.5246 36.992 35.3246 38.592C36.1246 40.192 37.5166 40.992 39.5006 40.992C43.2126 40.992 45.6446 39.008 46.7966 35.04L47.6606 35.184C47.0526 37.488 45.9486 39.28 44.3486 40.56C42.7806 41.84 40.4126 42.48 37.2446 42.48ZM34.1726 28.656H39.1166V26.304C39.1166 23.712 38.9566 21.952 38.6366 21.024C38.3486 20.064 37.7406 19.584 36.8126 19.584C35.9166 19.584 35.2446 20.096 34.7966 21.12C34.3806 22.112 34.1726 23.84 34.1726 26.304V28.656ZM65.4026 20.496C64.2186 20.496 63.1786 21.264 62.2826 22.8C61.3866 24.336 60.9386 26.16 60.9386 28.272V41.136H64.3466V42H49.3706V41.136H52.0106V20.016H49.3706V19.152H60.9386V23.76C61.3546 22.128 62.1546 20.88 63.3386 20.016C64.5226 19.12 65.8666 18.672 67.3706 18.672C68.8746 18.672 70.0906 19.104 71.0186 19.968C71.9786 20.8 72.4586 22 72.4586 23.568C72.4586 25.104 72.1066 26.288 71.4026 27.12C70.6986 27.952 69.6106 28.368 68.1386 28.368C66.6986 28.368 65.6266 27.888 64.9226 26.928C64.2506 25.968 64.1706 24.64 64.6826 22.944H66.4106C67.2106 21.312 66.8746 20.496 65.4026 20.496ZM85.5259 42.48C81.3979 42.48 78.2939 41.424 76.2139 39.312C74.1659 37.168 73.1419 34.208 73.1419 30.432C73.1419 26.624 74.2939 23.712 76.5979 21.696C78.9339 19.68 81.8939 18.672 85.4779 18.672C92.7419 18.672 96.2299 22.32 95.9419 29.616H82.4059V31.488C82.4059 34.624 82.8059 36.992 83.6059 38.592C84.4059 40.192 85.7979 40.992 87.7819 40.992C91.4939 40.992 93.9259 39.008 95.0779 35.04L95.9419 35.184C95.3339 37.488 94.2299 39.28 92.6299 40.56C91.0619 41.84 88.6939 42.48 85.5259 42.48ZM82.4539 28.656H87.3979V26.304C87.3979 23.712 87.2379 21.952 86.9179 21.024C86.6299 20.064 86.0219 19.584 85.0939 19.584C84.1979 19.584 83.5259 20.096 83.0779 21.12C82.6619 22.112 82.4539 23.84 82.4539 26.304V28.656ZM97.6519 19.152H109.22V23.568C110.276 20.304 112.596 18.672 116.18 18.672C119.796 18.672 121.988 20.4 122.756 23.856C123.876 20.4 126.228 18.672 129.812 18.672C134.516 18.672 136.868 21.344 136.868 26.688V41.136H139.556V42H126.26V41.136H127.94V25.536C127.94 23.104 127.732 21.68 127.316 21.264C127.124 21.072 126.868 20.976 126.548 20.976C125.62 20.976 124.804 21.6 124.1 22.848C123.396 24.096 123.044 25.68 123.044 27.6V41.136H124.772V42H112.436V41.136H114.116V25.536C114.116 23.104 113.908 21.68 113.492 21.264C113.3 21.072 113.044 20.976 112.724 20.976C111.828 20.976 111.012 21.664 110.276 23.04C109.572 24.384 109.22 26 109.22 27.888V41.136H110.948V42H97.6519V41.136H100.292V20.016H97.6519V19.152ZM147.317 15.84C145.621 15.84 144.405 15.408 143.669 14.544C142.965 13.68 142.613 12.608 142.613 11.328C142.613 10.048 142.997 8.992 143.765 8.16C144.565 7.328 145.765 6.912 147.365 6.912C148.965 6.912 150.181 7.296 151.013 8.064C151.845 8.8 152.261 9.872 152.261 11.28C152.261 12.656 151.861 13.76 151.061 14.592C150.261 15.424 149.013 15.84 147.317 15.84ZM140.069 19.152H151.829V41.136H154.517V42H140.261V41.136H142.901V20.016H140.069V19.152ZM167.016 30.72H168.408V27.024C168.408 23.984 168.232 21.952 167.88 20.928C167.56 19.872 166.92 19.344 165.96 19.344C165.384 19.344 164.856 19.504 164.376 19.824C163.928 20.112 163.704 20.528 163.704 21.072C163.704 21.584 163.8 22.112 163.992 22.656H165.192C165.448 23.328 165.576 24.144 165.576 25.104C165.576 26.032 165.176 26.848 164.376 27.552C163.576 28.224 162.568 28.56 161.352 28.56C158.6 28.56 157.224 27.232 157.224 24.576C157.224 20.64 160.568 18.672 167.256 18.672C171.064 18.672 173.688 19.328 175.128 20.64C176.6 21.92 177.336 24.288 177.336 27.744V37.488C177.336 39.152 177.8 39.984 178.728 39.984C179.816 39.984 180.456 38.336 180.648 35.04L181.368 35.088C181.24 37.904 180.712 39.84 179.784 40.896C178.856 41.952 177.336 42.48 175.224 42.48C171.384 42.48 169.176 41.296 168.6 38.928C168.184 40.144 167.56 41.04 166.728 41.616C165.896 42.192 164.68 42.48 163.08 42.48C158.344 42.48 155.976 40.544 155.976 36.672C155.976 34.4 156.872 32.848 158.664 32.016C160.488 31.152 163.272 30.72 167.016 30.72ZM165.096 36.624C165.096 38.288 165.176 39.36 165.336 39.84C165.528 40.32 165.864 40.56 166.344 40.56C166.856 40.56 167.32 40.16 167.736 39.36C168.184 38.528 168.408 37.392 168.408 35.952V31.488H168.072C166.088 31.488 165.096 32.944 165.096 35.856V36.624ZM182.943 42.48V33.888H183.519C184.351 36.672 185.471 38.624 186.879 39.744C188.287 40.864 190.047 41.424 192.159 41.424C195.423 41.424 197.055 40.384 197.055 38.304C197.055 37.408 196.655 36.736 195.855 36.288C194.607 35.584 193.007 35.04 191.055 34.656C188.879 34.08 187.055 33.312 185.583 32.352C183.823 31.2 182.943 29.376 182.943 26.88C182.943 24.384 183.711 22.4 185.247 20.928C186.783 19.424 188.831 18.672 191.391 18.672C192.959 18.672 194.575 19.04 196.239 19.776C196.847 20.032 197.311 20.16 197.631 20.16C197.951 20.16 198.223 20.048 198.447 19.824C198.671 19.6 198.943 19.184 199.263 18.576H199.791V25.92H199.215C197.583 21.76 195.055 19.68 191.631 19.68C190.127 19.68 189.007 19.952 188.271 20.496C187.535 21.008 187.167 21.664 187.167 22.464C187.167 22.944 187.279 23.328 187.503 23.616C187.727 23.872 187.903 24.064 188.031 24.192C188.159 24.32 188.367 24.464 188.655 24.624C188.943 24.752 189.183 24.864 189.375 24.96C189.567 25.024 189.855 25.12 190.239 25.248C190.655 25.376 190.959 25.456 191.151 25.488C193.327 26.032 194.895 26.512 195.855 26.928C196.815 27.312 197.727 27.792 198.591 28.368C200.351 29.584 201.231 31.552 201.231 34.272C201.231 36.96 200.431 39.008 198.831 40.416C197.231 41.792 195.039 42.48 192.255 42.48C190.271 42.48 188.351 42.016 186.495 41.088C186.111 40.832 185.807 40.704 185.583 40.704C184.879 40.704 184.191 41.296 183.519 42.48H182.943ZM208.46 42.48C207.084 42.48 206.044 42.08 205.34 41.28C204.668 40.448 204.332 39.456 204.332 38.304C204.332 37.12 204.684 36.128 205.388 35.328C206.124 34.528 207.148 34.128 208.46 34.128C209.772 34.128 210.812 34.464 211.58 35.136C212.348 35.808 212.732 36.816 212.732 38.16C212.732 39.504 212.364 40.56 211.628 41.328C210.924 42.096 209.868 42.48 208.46 42.48Z" fill="url(#paint0_linear)"/>
<defs>
<linearGradient id="paint0_linear" x1="-10.977" y1="-1.21269e-06" x2="249.514" y2="38.9455" gradientUnits="userSpaceOnUse">
<stop stop-color="#EECC67"/>
<stop offset="1" stop-color="#F0C442"/>
</linearGradient>
</defs>
</svg>
