<svg width="38" height="48" viewBox="0 0 38 48" fill="none" xmlns="http://www.w3.org/2000/svg">
<path d="M8.448 8.4H24.048V9.312H21.408V30.048C21.408 34.368 20.432 37.52 18.48 39.504C16.528 41.456 13.6 42.432 9.696 42.432C7.104 42.432 5.04 41.936 3.504 40.944C2 39.952 1.248 38.56 1.248 36.768C1.248 35.392 1.632 34.32 2.4 33.552C3.168 32.752 4.208 32.352 5.52 32.352C6.864 32.352 7.856 32.688 8.496 33.36C9.168 34.032 9.504 34.848 9.504 35.808C9.504 36.736 9.328 37.68 8.976 38.64H7.104C6.816 39.12 6.672 39.584 6.672 40.032C6.672 40.448 6.88 40.816 7.296 41.136C7.744 41.424 8.32 41.568 9.024 41.568C10.304 41.568 11.12 41.072 11.472 40.08C11.856 39.056 12.048 36.864 12.048 33.504V9.312H8.448V8.4ZM29.6318 42.48C28.2558 42.48 27.2158 42.08 26.5117 41.28C25.8398 40.448 25.5038 39.456 25.5038 38.304C25.5038 37.12 25.8558 36.128 26.5598 35.328C27.2958 34.528 28.3198 34.128 29.6318 34.128C30.9438 34.128 31.9838 34.464 32.7518 35.136C33.5198 35.808 33.9038 36.816 33.9038 38.16C33.9038 39.504 33.5358 40.56 32.7998 41.328C32.0958 42.096 31.0398 42.48 29.6318 42.48Z" fill="url(#paint0_linear)"/>
<defs>
<linearGradient id="paint0_linear" x1="-1.93115" y1="-1.21269e-06" x2="44.8879" y2="1.23145" gradientUnits="userSpaceOnUse">
<stop stop-color="#EECC67"/>
<stop offset="1" stop-color="#F0C442"/>
</linearGradient>
</defs>
</svg>
